<svg width="26" height="27" viewBox="0 0 26 27" fill="none" xmlns="http://www.w3.org/2000/svg">
<path d="M25.5431 23.8369L19.6625 17.9562C21.0783 16.0715 21.8426 13.7773 21.84 11.42C21.84 5.39875 16.9412 0.5 10.92 0.5C4.89875 0.5 0 5.39875 0 11.42C0 17.4412 4.89875 22.34 10.92 22.34C13.2773 22.3426 15.5715 21.5783 17.4562 20.1625L23.3369 26.0431C23.6346 26.3092 24.0228 26.4513 24.4219 26.4401C24.821 26.4289 25.2007 26.2654 25.4831 25.9831C25.7654 25.7007 25.9289 25.321 25.9401 24.9219C25.9513 24.5228 25.8092 24.1346 25.5431 23.8369ZM3.12 11.42C3.12 9.87731 3.57746 8.36926 4.43454 7.08655C5.29161 5.80385 6.50981 4.8041 7.93507 4.21374C9.36033 3.62338 10.9287 3.46891 12.4417 3.76988C13.9548 4.07084 15.3446 4.81372 16.4354 5.90457C17.5263 6.99542 18.2692 8.38524 18.5701 9.8983C18.8711 11.4113 18.7166 12.9797 18.1263 14.4049C17.5359 15.8302 16.5362 17.0484 15.2534 17.9055C13.9707 18.7625 12.4627 19.22 10.92 19.22C8.85207 19.2175 6.86955 18.3949 5.40731 16.9327C3.94506 15.4704 3.12248 13.4879 3.12 11.42Z" fill="black"/>
</svg>
