<svg width="30" height="22" viewBox="0 0 30 22" fill="none" xmlns="http://www.w3.org/2000/svg">
<path d="M16.3333 5.66668C16.3333 2.72001 13.9466 0.333344 11 0.333344C8.05331 0.333344 5.66665 2.72001 5.66665 5.66668C5.66665 8.61334 8.05331 11 11 11C13.9466 11 16.3333 8.61334 16.3333 5.66668ZM13.6666 5.66668C13.6666 7.13334 12.4666 8.33334 11 8.33334C9.53331 8.33334 8.33331 7.13334 8.33331 5.66668C8.33331 4.20001 9.53331 3.00001 11 3.00001C12.4666 3.00001 13.6666 4.20001 13.6666 5.66668ZM0.333313 19V21.6667H21.6666V19C21.6666 15.4533 14.56 13.6667 11 13.6667C7.43998 13.6667 0.333313 15.4533 0.333313 19ZM2.99998 19C3.26665 18.0533 7.39998 16.3333 11 16.3333C14.5866 16.3333 18.7066 18.04 19 19H2.99998ZM25.6666 15V11H29.6666V8.33334H25.6666V4.33334H23V8.33334H19V11H23V15H25.6666Z" fill="black"/>
</svg>
