<svg width="135" height="48" viewBox="0 0 135 48" fill="none" xmlns="http://www.w3.org/2000/svg">
<rect x="0.5" y="3.5" width="71" height="41" rx="1.5" fill="white"/>
<path d="M27.3828 26.125C27.3828 25.8594 27.3411 25.625 27.2578 25.4219C27.1797 25.2135 27.0391 25.026 26.8359 24.8594C26.638 24.6927 26.362 24.5339 26.0078 24.3828C25.6589 24.2318 25.2161 24.0781 24.6797 23.9219C24.1172 23.7552 23.6094 23.5703 23.1562 23.3672C22.7031 23.1589 22.3151 22.9219 21.9922 22.6562C21.6693 22.3906 21.4219 22.0859 21.25 21.7422C21.0781 21.3984 20.9922 21.0052 20.9922 20.5625C20.9922 20.1198 21.0833 19.7109 21.2656 19.3359C21.4479 18.9609 21.7083 18.6354 22.0469 18.3594C22.3906 18.0781 22.7995 17.8594 23.2734 17.7031C23.7474 17.5469 24.276 17.4688 24.8594 17.4688C25.7135 17.4688 26.4375 17.6328 27.0312 17.9609C27.6302 18.2839 28.0859 18.7083 28.3984 19.2344C28.7109 19.7552 28.8672 20.3125 28.8672 20.9062H27.3672C27.3672 20.4792 27.276 20.1016 27.0938 19.7734C26.9115 19.4401 26.6354 19.1797 26.2656 18.9922C25.8958 18.7995 25.4271 18.7031 24.8594 18.7031C24.3229 18.7031 23.8802 18.7839 23.5312 18.9453C23.1823 19.1068 22.9219 19.3255 22.75 19.6016C22.5833 19.8776 22.5 20.1927 22.5 20.5469C22.5 20.7865 22.5495 21.0052 22.6484 21.2031C22.7526 21.3958 22.9115 21.5755 23.125 21.7422C23.3438 21.9089 23.6198 22.0625 23.9531 22.2031C24.2917 22.3438 24.6953 22.4792 25.1641 22.6094C25.8099 22.7917 26.3672 22.9948 26.8359 23.2188C27.3047 23.4427 27.6901 23.6953 27.9922 23.9766C28.2995 24.2526 28.526 24.5677 28.6719 24.9219C28.8229 25.2708 28.8984 25.6667 28.8984 26.1094C28.8984 26.5729 28.8047 26.9922 28.6172 27.3672C28.4297 27.7422 28.1615 28.0625 27.8125 28.3281C27.4635 28.5938 27.0443 28.7995 26.5547 28.9453C26.0703 29.0859 25.5286 29.1562 24.9297 29.1562C24.4036 29.1562 23.8854 29.0833 23.375 28.9375C22.8698 28.7917 22.4089 28.5729 21.9922 28.2812C21.5807 27.9896 21.25 27.6302 21 27.2031C20.7552 26.7708 20.6328 26.2708 20.6328 25.7031H22.1328C22.1328 26.0938 22.2083 26.4297 22.3594 26.7109C22.5104 26.987 22.7161 27.2161 22.9766 27.3984C23.2422 27.5807 23.5417 27.7161 23.875 27.8047C24.2135 27.888 24.5651 27.9297 24.9297 27.9297C25.4557 27.9297 25.901 27.8568 26.2656 27.7109C26.6302 27.5651 26.9062 27.3568 27.0938 27.0859C27.2865 26.8151 27.3828 26.4948 27.3828 26.125ZM35.5859 27.5547V23.2031C35.5859 22.8698 35.5182 22.5807 35.3828 22.3359C35.2526 22.0859 35.0547 21.8932 34.7891 21.7578C34.5234 21.6224 34.1953 21.5547 33.8047 21.5547C33.4401 21.5547 33.1198 21.6172 32.8438 21.7422C32.5729 21.8672 32.3594 22.0312 32.2031 22.2344C32.0521 22.4375 31.9766 22.6562 31.9766 22.8906H30.5312C30.5312 22.5885 30.6094 22.2891 30.7656 21.9922C30.9219 21.6953 31.1458 21.4271 31.4375 21.1875C31.7344 20.9427 32.0885 20.75 32.5 20.6094C32.9167 20.4635 33.3802 20.3906 33.8906 20.3906C34.5052 20.3906 35.0469 20.4948 35.5156 20.7031C35.9896 20.9115 36.3594 21.2266 36.625 21.6484C36.8958 22.0651 37.0312 22.5885 37.0312 23.2188V27.1562C37.0312 27.4375 37.0547 27.737 37.1016 28.0547C37.1536 28.3724 37.2292 28.6458 37.3281 28.875V29H35.8203C35.7474 28.8333 35.6901 28.612 35.6484 28.3359C35.6068 28.0547 35.5859 27.7943 35.5859 27.5547ZM35.8359 23.875L35.8516 24.8906H34.3906C33.9792 24.8906 33.612 24.9245 33.2891 24.9922C32.9661 25.0547 32.6953 25.151 32.4766 25.2812C32.2578 25.4115 32.0911 25.5755 31.9766 25.7734C31.862 25.9661 31.8047 26.1927 31.8047 26.4531C31.8047 26.7188 31.8646 26.9609 31.9844 27.1797C32.1042 27.3984 32.2839 27.5729 32.5234 27.7031C32.7682 27.8281 33.0677 27.8906 33.4219 27.8906C33.8646 27.8906 34.2552 27.7969 34.5938 27.6094C34.9323 27.4219 35.2005 27.1927 35.3984 26.9219C35.6016 26.651 35.7109 26.388 35.7266 26.1328L36.3438 26.8281C36.3073 27.0469 36.2083 27.2891 36.0469 27.5547C35.8854 27.8203 35.6693 28.0755 35.3984 28.3203C35.1328 28.5599 34.8151 28.7604 34.4453 28.9219C34.0807 29.0781 33.6693 29.1562 33.2109 29.1562C32.638 29.1562 32.1354 29.0443 31.7031 28.8203C31.276 28.5964 30.9427 28.2969 30.7031 27.9219C30.4688 27.5417 30.3516 27.1172 30.3516 26.6484C30.3516 26.1953 30.4401 25.7969 30.6172 25.4531C30.7943 25.1042 31.0495 24.8151 31.3828 24.5859C31.7161 24.3516 32.1172 24.1745 32.5859 24.0547C33.0547 23.9349 33.5781 23.875 34.1562 23.875H35.8359ZM40.875 17V29H39.4219V17H40.875ZM44.7656 20.5469V29H43.3125V20.5469H44.7656ZM43.2031 18.3047C43.2031 18.0703 43.2734 17.8724 43.4141 17.7109C43.5599 17.5495 43.7734 17.4688 44.0547 17.4688C44.3307 17.4688 44.5417 17.5495 44.6875 17.7109C44.8385 17.8724 44.9141 18.0703 44.9141 18.3047C44.9141 18.5286 44.8385 18.7214 44.6875 18.8828C44.5417 19.0391 44.3307 19.1172 44.0547 19.1172C43.7734 19.1172 43.5599 19.0391 43.4141 18.8828C43.2734 18.7214 43.2031 18.5286 43.2031 18.3047ZM48.5312 21.875V29H47.0859V20.5469H48.4922L48.5312 21.875ZM51.1719 20.5L51.1641 21.8438C51.0443 21.8177 50.9297 21.8021 50.8203 21.7969C50.7161 21.7865 50.5964 21.7812 50.4609 21.7812C50.1276 21.7812 49.8333 21.8333 49.5781 21.9375C49.3229 22.0417 49.1068 22.1875 48.9297 22.375C48.7526 22.5625 48.612 22.7865 48.5078 23.0469C48.4089 23.3021 48.3438 23.5833 48.3125 23.8906L47.9062 24.125C47.9062 23.6146 47.9557 23.1354 48.0547 22.6875C48.1589 22.2396 48.3177 21.8438 48.5312 21.5C48.7448 21.151 49.0156 20.8802 49.3438 20.6875C49.6771 20.4896 50.0729 20.3906 50.5312 20.3906C50.6354 20.3906 50.7552 20.4036 50.8906 20.4297C51.026 20.4505 51.1198 20.474 51.1719 20.5Z" fill="#BF3401"/>
<rect x="0.5" y="3.5" width="71" height="41" rx="1.5" stroke="#BF3401"/>
<path d="M94.5 15H127.5M94.5 24H127.5M94.5 33H127.5" stroke="white" stroke-width="2" stroke-miterlimit="10" stroke-linecap="round"/>
</svg>
